<svg width="200" height="200" viewBox="0 0 200 200" xmlns="http://www.w3.org/2000/svg">
  <!-- Urakompassi - Unique Career Compass Logo -->

  <!-- Background circle with subtle gradient effect -->
  <defs>
    <radialGradient id="bgGradient" cx="50%" cy="50%" r="50%">
      <stop offset="0%" style="stop-color:#F8FAFB;stop-opacity:1" />
      <stop offset="100%" style="stop-color:#E8F1F5;stop-opacity:1" />
    </radialGradient>

    <!-- Subtle shadow for depth -->
    <filter id="softShadow" x="-50%" y="-50%" width="200%" height="200%">
      <feGaussianBlur in="SourceAlpha" stdDeviation="3"/>
      <feOffset dx="0" dy="2" result="offsetblur"/>
      <feComponentTransfer>
        <feFuncA type="linear" slope="0.2"/>
      </feComponentTransfer>
      <feMerge>
        <feMergeNode/>
        <feMergeNode in="SourceGraphic"/>
      </feMerge>
    </filter>

    <!-- Career path gradient -->
    <linearGradient id="pathGradient" x1="0%" y1="0%" x2="100%" y2="100%">
      <stop offset="0%" style="stop-color:#4A7C59;stop-opacity:0.6" />
      <stop offset="100%" style="stop-color:#2B5F75;stop-opacity:0.8" />
    </linearGradient>
  </defs>

  <!-- Outer decorative ring with career path markers -->
  <circle cx="100" cy="100" r="95" fill="none" stroke="#2B5F75" stroke-width="2" opacity="0.15"/>

  <!-- Career pathway dots (8 directions = 8 career categories) -->
  <circle cx="100" cy="15" r="4" fill="#E8994A" opacity="0.7"/>
  <circle cx="141" cy="28" r="4" fill="#4A7C59" opacity="0.7"/>
  <circle cx="172" cy="59" r="4" fill="#E8994A" opacity="0.7"/>
  <circle cx="185" cy="100" r="4" fill="#4A7C59" opacity="0.7"/>
  <circle cx="172" cy="141" r="4" fill="#E8994A" opacity="0.7"/>
  <circle cx="141" cy="172" r="4" fill="#4A7C59" opacity="0.7"/>
  <circle cx="100" cy="185" r="4" fill="#E8994A" opacity="0.7"/>
  <circle cx="59" cy="172" r="4" fill="#4A7C59" opacity="0.7"/>
  <circle cx="28" cy="141" r="4" fill="#E8994A" opacity="0.7"/>
  <circle cx="15" cy="100" r="4" fill="#4A7C59" opacity="0.7"/>
  <circle cx="28" cy="59" r="4" fill="#E8994A" opacity="0.7"/>
  <circle cx="59" cy="28" r="4" fill="#4A7C59" opacity="0.7"/>

  <!-- Main compass housing -->
  <circle cx="100" cy="100" r="85" fill="url(#bgGradient)" stroke="#2B5F75" stroke-width="3.5" filter="url(#softShadow)"/>

  <!-- Inner career pathway ring - representing different career paths -->
  <circle cx="100" cy="100" r="70" fill="none" stroke="url(#pathGradient)" stroke-width="2" stroke-dasharray="10 5" opacity="0.5"/>

  <!-- Career direction indicators (subtle lines to path markers) -->
  <line x1="100" y1="100" x2="141" y2="59" stroke="#4A7C59" stroke-width="1" opacity="0.15"/>
  <line x1="100" y1="100" x2="141" y2="141" stroke="#4A7C59" stroke-width="1" opacity="0.15"/>
  <line x1="100" y1="100" x2="59" y2="141" stroke="#4A7C59" stroke-width="1" opacity="0.15"/>
  <line x1="100" y1="100" x2="59" y2="59" stroke="#4A7C59" stroke-width="1" opacity="0.15"/>

  <!-- Dynamic compass needle - pointing to career opportunities -->
  <g transform="translate(100, 100)">
    <!-- North needle (primary direction - your career path) -->
    <path d="M 0,-70 L -10,-5 L 0,8 L 10,-5 Z" fill="#D64545" stroke="#1F4756" stroke-width="2" filter="url(#softShadow)"/>

    <!-- South needle (grounded, stable foundation) -->
    <path d="M 0,70 L -10,5 L 0,-8 L 10,5 Z" fill="#2B5F75" stroke="#1F4756" stroke-width="2" filter="url(#softShadow)"/>

    <!-- East-West balance indicators (smaller, subtle) -->
    <path d="M 50,0 L 5,-6 L -8,0 L 5,6 Z" fill="#4A7C59" stroke="#1F4756" stroke-width="1.5" opacity="0.7"/>
    <path d="M -50,0 L -5,-6 L 8,0 L -5,6 Z" fill="#4A7C59" stroke="#1F4756" stroke-width="1.5" opacity="0.7"/>

    <!-- Center hub - the individual at the center of career choices -->
    <circle cx="0" cy="0" r="15" fill="#E8994A" stroke="#1F4756" stroke-width="2.5"/>
    <circle cx="0" cy="0" r="8" fill="#FFFFFF"/>
    <circle cx="0" cy="0" r="3" fill="#2B5F75"/>
  </g>

  <!-- Decorative accent dots at main cardinal points -->
  <circle cx="100" cy="32" r="2.5" fill="#E8994A"/>
  <circle cx="100" cy="168" r="2.5" fill="#E8994A"/>
  <circle cx="32" cy="100" r="2.5" fill="#E8994A"/>
  <circle cx="168" cy="100" r="2.5" fill="#E8994A"/>

  <!-- Subtle tick marks for precision (every 30 degrees) -->
  <g stroke="#2B5F75" stroke-width="1.5" opacity="0.3">
    <line x1="100" y1="20" x2="100" y2="25"/>
    <line x1="135.35" y1="29.29" x2="132.07" y2="32.57"/>
    <line x1="170.71" y1="64.65" x2="167.43" y2="67.93"/>
    <line x1="180" y1="100" x2="175" y2="100"/>
    <line x1="170.71" y1="135.35" x2="167.43" y2="132.07"/>
    <line x1="135.35" y1="170.71" x2="132.07" y2="167.43"/>
    <line x1="100" y1="180" x2="100" y2="175"/>
    <line x1="64.65" y1="170.71" x2="67.93" y2="167.43"/>
    <line x1="29.29" y1="135.35" x2="32.57" y2="132.07"/>
    <line x1="20" y1="100" x2="25" y2="100"/>
    <line x1="29.29" y1="64.65" x2="32.57" y2="67.93"/>
    <line x1="64.65" y1="29.29" x2="67.93" y2="32.57"/>
  </g>
</svg>
